<?xml version="1.0" encoding="UTF-8" standalone="no"?>
<svg
   width="146.54601"
   height="146.54601"
   viewBox="0 0 146.54601 146.546"
   version="1.1"
   xml:space="preserve"
   style="clip-rule:evenodd;fill-rule:evenodd;stroke-linejoin:round;stroke-miterlimit:2"
   id="svg1"
   sodipodi:docname="misskey_mi.svg"
   inkscape:version="1.3.2 (091e20e, 2023-11-25)"
   xmlns:inkscape="http://www.inkscape.org/namespaces/inkscape"
   xmlns:sodipodi="http://sodipodi.sourceforge.net/DTD/sodipodi-0.dtd"
   xmlns="http://www.w3.org/2000/svg"
   xmlns:svg="http://www.w3.org/2000/svg"><defs
   id="defs1"><clipPath
     clipPathUnits="userSpaceOnUse"
     id="clipPath1"><rect
       style="fill:none;stroke:#000000;stroke-width:3.81148"
       id="rect2"
       width="553.87054"
       height="391.48138"
       x="188.99306"
       y="186.76704" /></clipPath></defs><sodipodi:namedview
   id="namedview1"
   pagecolor="#ffffff"
   bordercolor="#000000"
   borderopacity="0.25"
   inkscape:showpageshadow="2"
   inkscape:pageopacity="0.0"
   inkscape:pagecheckerboard="0"
   inkscape:deskcolor="#d1d1d1"
   inkscape:zoom="1.6990291"
   inkscape:cx="172.45143"
   inkscape:cy="67.98"
   inkscape:window-width="1440"
   inkscape:window-height="592"
   inkscape:window-x="0"
   inkscape:window-y="25"
   inkscape:window-maximized="0"
   inkscape:current-layer="svg1" />
    <g
   id="path2"
   transform="matrix(0.264585,0,0,0.264585,-50.004727,-28.227069)"
   clip-path="url(#clipPath1)">
        <path
   d="m 256.418,188.976 c -7.86,-0.032 -15.66,1.332 -23.039,4.037 -13.071,4.6 -23.846,12.875 -32.288,24.789 -8.071,11.527 -12.114,24.393 -12.114,38.607 V 508.89 c 0,18.442 6.543,34.4 19.599,47.842 13.456,13.071 29.414,19.599 47.842,19.599 18.841,0 34.786,-6.528 47.856,-19.584 13.456,-13.456 20.167,-29.415 20.167,-47.857 v -45.907 c 0.143,-9.943 10.383,-7.328 15.569,0 9.681,16.777 32.35,31.136 54.183,31.136 21.833,0 43.812,-11.923 54.182,-31.136 3.929,-4.629 15.002,-12.528 16.145,0 v 45.907 c 0,18.442 6.527,34.4 19.584,47.842 13.47,13.071 29.407,19.599 47.849,19.599 18.827,0 34.786,-6.528 47.856,-19.584 13.456,-13.456 20.168,-29.415 20.168,-47.857 V 256.409 c 0,-14.214 -4.225,-27.08 -12.668,-38.607 -8.085,-11.928 -18.656,-20.189 -31.712,-24.789 -7.685,-2.699 -15.369,-4.037 -23.054,-4.037 -20.755,0 -38.242,8.07 -52.47,24.212 l -68.437,80.093 c -1.529,1.157 -6.63,9.966 -17.458,9.966 -10.799,0 -15.31,-8.808 -16.853,-9.951 L 308.297,213.188 C 294.47,197.046 277.173,188.976 256.418,188.976 Z m 426.486,0.007 c -16.141,0 -29.978,5.765 -41.5,17.288 -11.143,11.142 -16.713,24.783 -16.713,40.925 0,16.142 5.57,29.978 16.713,41.501 11.522,11.142 25.359,16.713 41.5,16.713 16.142,0 29.976,-5.571 41.508,-16.713 11.523,-11.523 17.281,-25.359 17.281,-41.501 0,-16.142 -5.758,-29.783 -17.281,-40.925 -11.532,-11.523 -25.366,-17.288 -41.508,-17.288 z m 644.676,4.03 c -16.13,0 -29.96,5.766 -41.48,17.289 -11.14,11.142 -16.72,24.778 -16.72,40.91 V 519.72 c 0,16.141 5.58,29.977 16.72,41.5 11.52,11.142 25.35,16.713 41.48,16.713 16.15,0 29.97,-5.571 41.5,-16.713 11.52,-11.523 17.29,-25.353 17.29,-41.486 0,-11.523 1.53,-17.281 4.59,-17.281 1.55,0 3.09,0.57 4.62,1.713 l 57.62,55.895 c 11.52,11.142 25.16,16.713 40.91,16.713 16.51,0 30.34,-5.765 41.49,-17.288 11.14,-11.914 16.71,-25.55 16.71,-40.911 0,-16.522 -5.95,-30.546 -17.86,-42.069 -26.13,-25.741 -39.76,-38.989 -40.91,-39.751 -5,-5 -4.81,-9.225 0.57,-12.682 l 37.46,-24.198 c 17.28,-11.523 25.93,-27.849 25.93,-48.971 0,-11.523 -3.08,-22.282 -9.22,-32.281 -11.52,-17.284 -27.85,-25.932 -48.98,-25.932 -11.52,0 -22.28,3.077 -32.26,9.22 -44.56,29.588 -67.62,44.767 -69.16,45.538 -2.68,1.914 -5.18,2.289 -7.48,1.137 -2.7,-1.152 -4.05,-3.647 -4.05,-7.485 v -89.889 c 0,-16.132 -5.76,-29.768 -17.28,-40.91 -11.52,-11.523 -25.35,-17.289 -41.49,-17.289 z m 388.79,98.725 c -39.95,0 -74.13,14.211 -102.56,42.638 -28.05,28.046 -42.07,61.851 -42.07,101.419 0,39.95 14.02,74.137 42.07,102.564 28.43,28.045 62.61,42.069 102.56,42.069 39.57,0 73.57,-14.024 102,-42.069 8.83,-8.838 13.25,-19.586 13.25,-32.252 0,-12.684 -4.42,-23.443 -13.25,-32.28 -8.84,-8.828 -19.6,-13.243 -32.26,-13.243 -12.69,0 -23.45,4.415 -32.28,13.243 -10.37,10.761 -22.86,16.136 -37.46,16.136 -14.97,0 -27.84,-5.183 -38.6,-15.553 -10.38,-10.761 -15.57,-23.635 -15.57,-38.615 0,-14.589 5.39,-27.075 16.15,-37.455 5.38,-5.762 11.91,-9.6 19.58,-11.523 1.94,-0.381 3.47,-0.194 4.62,0.568 0.77,1.162 0.38,2.317 -1.16,3.469 l -11.52,12.099 c -8.84,8.838 -13.26,19.406 -13.26,31.691 0,12.675 3.84,22.853 11.52,30.538 7.68,7.686 18.44,11.523 32.28,11.523 9.6,0 19.2,-4.795 28.8,-14.394 l 66.85,-66.267 c 8.84,-8.847 13.26,-19.608 13.26,-32.274 0,-12.684 -4.42,-23.438 -13.26,-32.266 -26.89,-26.512 -60.12,-39.766 -99.69,-39.766 z m -838.393,0.93 c -36.03,-0.474 -64.138,9.011 -84.315,28.465 -17.666,16.903 -26.494,38.225 -26.494,63.956 0.381,32.274 12.867,56.476 37.456,72.608 7.294,4.99 16.317,9.023 27.069,12.099 5.39,1.924 14.418,4.224 27.084,6.909 11.142,2.686 23.246,5.181 36.311,7.486 2.686,0.771 3.836,2.121 3.455,4.045 0,2.305 -1.427,3.103 -2.886,3.455 -2.785,0.672 -9.238,1.051 -13.826,0.575 -12.966,-1.345 -52.83,-6.339 -63.972,-8.644 -3.066,-0.771 -6.324,-1.159 -9.781,-1.159 -11.913,0 -22.291,4.421 -31.129,13.258 -8.447,8.457 -12.667,18.83 -12.667,31.115 0,9.989 3.07,19.018 9.212,27.084 6.533,8.066 14.992,13.249 25.372,15.553 32.264,7.305 61.451,10.955 87.563,10.955 35.731,0 63.584,-9.603 83.563,-28.811 17.285,-16.523 25.933,-37.842 25.933,-63.964 0,-32.265 -12.299,-56.466 -36.888,-72.608 -13.065,-8.447 -31.122,-14.595 -54.168,-18.433 -13.827,-2.685 -28.039,-5.468 -34.569,-7.485 -2.078,-0.642 -4.233,-2.309 -4.614,-4.614 0,-1.923 1.538,-3.073 4.614,-3.454 3.457,-0.381 7.115,-0.381 10.962,0 31.884,3.076 53.39,5.764 64.532,8.068 3.067,0.762 6.137,1.144 9.213,1.144 12.294,0 22.667,-4.22 31.114,-12.667 8.838,-8.837 13.258,-19.211 13.258,-31.114 0,-10.381 -3.27,-19.596 -9.803,-27.653 -6.533,-8.076 -14.786,-13.271 -24.766,-15.576 -26.512,-5.761 -53.022,-9.219 -79.525,-10.371 -2.472,-0.12 -4.906,-0.19 -7.308,-0.222 z m 250.753,0 c -36.03,-0.474 -64.14,9.011 -84.31,28.465 -17.67,16.903 -26.5,38.225 -26.5,63.956 0.38,32.274 12.87,56.476 37.46,72.608 7.29,4.99 16.32,9.023 27.08,12.099 5.38,1.924 14.4,4.224 27.08,6.909 11.14,2.686 23.25,5.181 36.3,7.486 2.69,0.771 3.84,2.121 3.46,4.045 0,2.305 -1.43,3.103 -2.89,3.455 -2.79,0.672 -9.23,1.051 -13.82,0.575 -12.96,-1.345 -52.82,-6.339 -63.96,-8.644 -3.08,-0.771 -6.34,-1.159 -9.8,-1.159 -11.91,0 -22.28,4.421 -31.11,13.258 -8.46,8.457 -12.68,18.83 -12.68,31.115 0,9.989 3.07,19.018 9.22,27.084 6.53,8.066 14.98,13.249 25.36,15.553 32.26,7.305 61.46,10.955 87.58,10.955 35.72,0 63.57,-9.603 83.55,-28.811 17.28,-16.523 25.93,-37.842 25.93,-63.964 0,-32.265 -12.29,-56.466 -36.87,-72.608 -13.07,-8.447 -31.13,-14.595 -54.17,-18.433 -13.83,-2.685 -28.06,-5.468 -34.59,-7.485 -2.07,-0.641 -4.21,-2.309 -4.6,-4.614 0,-1.923 1.54,-3.073 4.6,-3.454 3.47,-0.381 7.12,-0.381 10.96,0 31.88,3.076 53.4,5.764 64.54,8.068 3.07,0.762 6.14,1.144 9.21,1.144 12.3,0 22.67,-4.22 31.13,-12.667 8.83,-8.837 13.24,-19.211 13.24,-31.114 0,-10.381 -3.26,-19.596 -9.78,-27.653 -6.54,-8.076 -14.8,-13.271 -24.79,-15.576 -26.5,-5.761 -53.01,-9.219 -79.52,-10.371 -2.47,-0.12 -4.91,-0.19 -7.31,-0.222 z m 781.44,4.068 c -16.13,0 -29.96,5.765 -41.48,17.288 -11.14,11.133 -16.71,24.769 -16.71,40.91 v 80.094 c 0,38.797 13.82,72.022 41.47,99.677 27.67,27.655 60.91,41.486 99.7,41.486 7.69,0 14.8,-0.577 21.33,-1.72 3.84,-0.772 6.52,-0.002 8.05,2.303 1.16,1.533 0.77,3.646 -1.14,6.341 -5,6.914 -15.57,10.371 -31.7,10.371 -6.14,0 -14.01,-1.537 -23.62,-4.613 -9.6,-3.076 -17.09,-4.614 -22.47,-4.614 -22.67,0 -38.61,10.379 -47.83,31.129 -3.45,6.914 -5.19,14.21 -5.19,21.895 0,22.665 10.19,38.609 30.55,47.827 20.36,9.599 43.21,14.395 68.56,14.395 43.8,0 78.56,-12.866 104.29,-38.607 26.13,-25.732 39.93,-60.114 39.93,-103.14 l 0.41,-202.824 c 0,-16.132 -5.75,-29.768 -17.28,-40.91 -11.14,-11.523 -24.77,-17.288 -40.91,-17.288 -16.14,0 -29.97,5.765 -41.5,17.288 -11.52,11.133 -17.28,24.769 -17.28,40.91 v 80.094 c 0,6.523 -2.31,12.281 -6.92,17.28 -4.6,4.61 -10.36,6.917 -17.28,6.917 -6.53,0 -12.29,-2.307 -17.28,-6.917 -4.61,-4.999 -6.92,-10.757 -6.92,-17.28 v -80.094 c 0,-16.132 -5.76,-29.768 -17.28,-40.91 -11.53,-11.523 -25.37,-17.288 -41.5,-17.288 z M 683.473,316.947 c -16.142,0 -29.978,5.766 -41.501,17.289 -11.523,11.532 -17.281,25.366 -17.281,41.508 v 142.374 c 0,16.141 5.758,29.977 17.281,41.5 11.532,11.143 25.369,16.713 41.501,16.713 16.151,0 29.797,-5.57 40.939,-16.713 11.523,-11.523 17.281,-25.359 17.281,-41.5 V 375.744 c 0,-16.151 -5.758,-29.985 -17.281,-41.508 -11.151,-11.523 -24.798,-17.289 -40.939,-17.289 z"
   style="fill-rule:nonzero"
   id="path1" />
    </g>
</svg>
